<?xml version="1.0" standalone="no"?>
<!DOCTYPE svg PUBLIC "-//W3C//DTD SVG 20010904//EN"
 "http://www.w3.org/TR/2001/REC-SVG-20010904/DTD/svg10.dtd">
<svg version="1.0" xmlns="http://www.w3.org/2000/svg"
 width="100.000000pt" height="100.000000pt" viewBox="0 0 100.000000 100.000000"
 preserveAspectRatio="xMidYMid meet">
<metadata>
Created by potrace 1.14, written by Peter Selinger 2001-2017
</metadata>
<g transform="translate(0.000000,100.000000) scale(0.100000,-0.100000)"
fill="#000000" stroke="none">
<path d="M185 775 c-5 -2 -29 -9 -52 -15 -50 -13 -55 -26 -13 -35 l30 -7 0
-248 0 -247 -30 -6 c-16 -4 -30 -11 -30 -17 0 -6 37 -10 96 -10 72 0 95 3 92
13 -3 6 -14 13 -26 15 -21 3 -22 8 -22 136 l0 132 40 23 c52 29 100 25 117 -9
8 -16 13 -70 13 -152 l0 -127 -27 -3 c-14 -2 -28 -9 -31 -15 -3 -10 33 -13
157 -13 99 0 161 4 161 10 0 5 -11 12 -25 16 l-25 6 0 133 0 133 34 21 c18 12
50 21 70 21 54 0 66 -36 66 -189 l0 -120 -27 -3 c-14 -2 -28 -9 -31 -15 -3
-10 20 -13 93 -13 73 0 96 3 93 13 -3 6 -14 13 -26 15 -12 2 -22 6 -23 10 0 4
-4 74 -7 156 -7 146 -8 148 -35 172 -41 35 -100 33 -160 -6 l-47 -30 0 131 0
132 -32 -7 c-108 -21 -134 -39 -78 -51 l30 -7 0 -249 0 -249 -25 0 -25 0 0
123 c0 67 -5 139 -10 159 -25 90 -134 105 -212 30 l-28 -26 0 137 c0 124 -2
137 -17 136 -10 0 -22 -2 -28 -4z"/>
</g>
</svg>
